
          <svg xmlns="http://www.w3.org/2000/svg" width="800" height="400" viewBox="0 0 800 400">
            <!-- https://grabient.com/HQFgbAjANKCsI3NUEDsiBMHEAYDMMGAnDoUQBwwSxFRjAYjr0ayx0OrJh5hQTAIkGLDztgOWOSA/HQFgbAjANKCsI3NUEDsiBMHEAYDMMGAnDoUQBwwSxFRjAYjr0ayx0OrJh5hQTAIkGLDztgOWOSA?style=angularSwatches&steps=13&angle=90 -->
        
          <defs>
            <clipPath id="squareClip">
              <rect x="0" y="0" width="800" height="400" />
            </clipPath>
          </defs>
          <g clip-path="url(#squareClip)">
        <path d="
              M 400.000,200.000
              L 847.214,200.000
              A 447.214,447.214 0 0 1 795.989,407.829
              Z
            " fill="rgb(238, 230, 223)" fill-opacity="1.000" /><path d="
              M 400.000,200.000
              L 795.989,407.829
              A 447.214,447.214 0 0 1 654.050,568.047
              Z
            " fill="rgb(229, 220, 218)" fill-opacity="1.000" /><path d="
              M 400.000,200.000
              L 654.050,568.047
              A 447.214,447.214 0 0 1 453.913,643.952
              Z
            " fill="rgb(220, 211, 214)" fill-opacity="1.000" /><path d="
              M 400.000,200.000
              L 453.913,643.952
              A 447.214,447.214 0 0 1 241.425,618.156
              Z
            " fill="rgb(211, 203, 209)" fill-opacity="1.000" /><path d="
              M 400.000,200.000
              L 241.425,618.156
              A 447.214,447.214 0 0 1 65.263,496.567
              Z
            " fill="rgb(203, 195, 205)" fill-opacity="1.000" /><path d="
              M 400.000,200.000
              L 65.263,496.567
              A 447.214,447.214 0 0 1 -34.215,307.039
              Z
            " fill="rgb(195, 187, 201)" fill-opacity="1.000" /><path d="
              M 400.000,200.000
              L -34.215,307.039
              A 447.214,447.214 0 0 1 -34.223,92.991
              Z
            " fill="rgb(188, 180, 197)" fill-opacity="1.000" /><path d="
              M 400.000,200.000
              L -34.223,92.991
              A 447.214,447.214 0 0 1 65.243,-96.543
              Z
            " fill="rgb(182, 174, 193)" fill-opacity="1.000" /><path d="
              M 400.000,200.000
              L 65.243,-96.543
              A 447.214,447.214 0 0 1 241.396,-218.145
              Z
            " fill="rgb(176, 169, 190)" fill-opacity="1.000" /><path d="
              M 400.000,200.000
              L 241.396,-218.145
              A 447.214,447.214 0 0 1 453.882,-243.956
              Z
            " fill="rgb(171, 164, 186)" fill-opacity="1.000" /><path d="
              M 400.000,200.000
              L 453.882,-243.956
              A 447.214,447.214 0 0 1 654.025,-168.065
              Z
            " fill="rgb(167, 160, 183)" fill-opacity="1.000" /><path d="
              M 400.000,200.000
              L 654.025,-168.065
              A 447.214,447.214 0 0 1 795.975,-7.856
              Z
            " fill="rgb(163, 157, 180)" fill-opacity="1.000" /><path d="
              M 400.000,200.000
              L 795.975,-7.856
              A 447.214,447.214 0 0 1 847.214,199.969
              Z
            " fill="rgb(160, 155, 177)" fill-opacity="1.000" />
          </g>
        </svg>
        