
          <svg xmlns="http://www.w3.org/2000/svg" width="800" height="400" viewBox="0 0 800 400">
            <!-- https://grabient.com/HQNgTAHANMAsEFYZjLKBaADMAzARmi2DAE4QZYTDtY8wNswQSY8B2cvXDh4BWekRIIcrPEi55MeKF0zyomIA/HQNgTAHANMAsEFYZjLKBaADMAzARmi2DAE4QZYTDtY8wNswQSY8B2cvXDh4BWekRIIcrPEi55MeKF0zyomIA?style=angularGradient&steps=5&angle=285 -->
        
          <defs>
            <clipPath id="squareClip">
              <rect x="0" y="0" width="800" height="400" />
            </clipPath>
          </defs>
          <g clip-path="url(#squareClip)">
        <path d="
              M 400.000,200.000
              L -31.976,84.252
              A 447.214,447.214 0 0 1 -8.550,18.102
              Z
            " fill="rgb(253, 233, 220)" fill-opacity="1.000" /><path d="
              M 400.000,200.000
              L -8.550,18.102
              A 447.214,447.214 0 0 1 24.935,-43.570
              Z
            " fill="rgb(247, 231, 218)" fill-opacity="1.000" /><path d="
              M 400.000,200.000
              L 24.935,-43.570
              A 447.214,447.214 0 0 1 67.655,-99.245
              Z
            " fill="rgb(240, 229, 216)" fill-opacity="1.000" /><path d="
              M 400.000,200.000
              L 67.655,-99.245
              A 447.214,447.214 0 0 1 118.559,-147.551
              Z
            " fill="rgb(234, 227, 214)" fill-opacity="1.000" /><path d="
              M 400.000,200.000
              L 118.559,-147.551
              A 447.214,447.214 0 0 1 176.393,-187.299
              Z
            " fill="rgb(228, 225, 212)" fill-opacity="1.000" /><path d="
              M 400.000,200.000
              L 176.393,-187.299
              A 447.214,447.214 0 0 1 239.733,-217.510
              Z
            " fill="rgb(221, 223, 210)" fill-opacity="1.000" /><path d="
              M 400.000,200.000
              L 239.733,-217.510
              A 447.214,447.214 0 0 1 307.019,-237.441
              Z
            " fill="rgb(215, 221, 208)" fill-opacity="1.000" /><path d="
              M 400.000,200.000
              L 307.019,-237.441
              A 447.214,447.214 0 0 1 376.595,-246.601
              Z
            " fill="rgb(209, 219, 206)" fill-opacity="1.000" /><path d="
              M 400.000,200.000
              L 376.595,-246.601
              A 447.214,447.214 0 0 1 446.747,-244.764
              Z
            " fill="rgb(202, 217, 204)" fill-opacity="1.000" /><path d="
              M 400.000,200.000
              L 446.747,-244.764
              A 447.214,447.214 0 0 1 515.748,-231.976
              Z
            " fill="rgb(195, 214, 201)" fill-opacity="1.000" /><path d="
              M 400.000,200.000
              L 515.748,-231.976
              A 447.214,447.214 0 0 1 581.898,-208.550
              Z
            " fill="rgb(188, 210, 198)" fill-opacity="1.000" /><path d="
              M 400.000,200.000
              L 581.898,-208.550
              A 447.214,447.214 0 0 1 643.570,-175.065
              Z
            " fill="rgb(181, 207, 195)" fill-opacity="1.000" /><path d="
              M 400.000,200.000
              L 643.570,-175.065
              A 447.214,447.214 0 0 1 699.245,-132.345
              Z
            " fill="rgb(174, 204, 191)" fill-opacity="1.000" /><path d="
              M 400.000,200.000
              L 699.245,-132.345
              A 447.214,447.214 0 0 1 747.551,-81.441
              Z
            " fill="rgb(167, 200, 188)" fill-opacity="1.000" /><path d="
              M 400.000,200.000
              L 747.551,-81.441
              A 447.214,447.214 0 0 1 787.299,-23.607
              Z
            " fill="rgb(160, 197, 185)" fill-opacity="1.000" /><path d="
              M 400.000,200.000
              L 787.299,-23.607
              A 447.214,447.214 0 0 1 817.510,39.733
              Z
            " fill="rgb(153, 193, 182)" fill-opacity="1.000" /><path d="
              M 400.000,200.000
              L 817.510,39.733
              A 447.214,447.214 0 0 1 837.441,107.019
              Z
            " fill="rgb(146, 190, 179)" fill-opacity="1.000" /><path d="
              M 400.000,200.000
              L 837.441,107.019
              A 447.214,447.214 0 0 1 846.601,176.595
              Z
            " fill="rgb(142, 186, 175)" fill-opacity="1.000" /><path d="
              M 400.000,200.000
              L 846.601,176.595
              A 447.214,447.214 0 0 1 844.764,246.747
              Z
            " fill="rgb(137, 182, 171)" fill-opacity="1.000" /><path d="
              M 400.000,200.000
              L 844.764,246.747
              A 447.214,447.214 0 0 1 831.976,315.748
              Z
            " fill="rgb(132, 177, 167)" fill-opacity="1.000" /><path d="
              M 400.000,200.000
              L 831.976,315.748
              A 447.214,447.214 0 0 1 808.550,381.898
              Z
            " fill="rgb(127, 173, 163)" fill-opacity="1.000" /><path d="
              M 400.000,200.000
              L 808.550,381.898
              A 447.214,447.214 0 0 1 775.065,443.570
              Z
            " fill="rgb(122, 169, 159)" fill-opacity="1.000" /><path d="
              M 400.000,200.000
              L 775.065,443.570
              A 447.214,447.214 0 0 1 732.345,499.245
              Z
            " fill="rgb(118, 165, 155)" fill-opacity="1.000" /><path d="
              M 400.000,200.000
              L 732.345,499.245
              A 447.214,447.214 0 0 1 681.441,547.551
              Z
            " fill="rgb(113, 160, 151)" fill-opacity="1.000" /><path d="
              M 400.000,200.000
              L 681.441,547.551
              A 447.214,447.214 0 0 1 623.607,587.299
              Z
            " fill="rgb(108, 156, 147)" fill-opacity="1.000" /><path d="
              M 400.000,200.000
              L 623.607,587.299
              A 447.214,447.214 0 0 1 560.267,617.510
              Z
            " fill="rgb(107, 152, 142)" fill-opacity="1.000" /><path d="
              M 400.000,200.000
              L 560.267,617.510
              A 447.214,447.214 0 0 1 492.981,637.441
              Z
            " fill="rgb(107, 148, 138)" fill-opacity="1.000" /><path d="
              M 400.000,200.000
              L 492.981,637.441
              A 447.214,447.214 0 0 1 423.405,646.601
              Z
            " fill="rgb(106, 143, 133)" fill-opacity="1.000" /><path d="
              M 400.000,200.000
              L 423.405,646.601
              A 447.214,447.214 0 0 1 353.253,644.764
              Z
            " fill="rgb(105, 139, 128)" fill-opacity="1.000" /><path d="
              M 400.000,200.000
              L 353.253,644.764
              A 447.214,447.214 0 0 1 284.252,631.976
              Z
            " fill="rgb(105, 135, 124)" fill-opacity="1.000" /><path d="
              M 400.000,200.000
              L 284.252,631.976
              A 447.214,447.214 0 0 1 218.102,608.550
              Z
            " fill="rgb(104, 131, 119)" fill-opacity="1.000" /><path d="
              M 400.000,200.000
              L 218.102,608.550
              A 447.214,447.214 0 0 1 156.430,575.065
              Z
            " fill="rgb(103, 126, 115)" fill-opacity="1.000" /><path d="
              M 400.000,200.000
              L 156.430,575.065
              A 447.214,447.214 0 0 1 100.755,532.345
              Z
            " fill="rgb(102, 122, 110)" fill-opacity="1.000" /><path d="
              M 400.000,200.000
              L 100.755,532.345
              A 447.214,447.214 0 0 1 52.449,481.441
              Z
            " fill="rgb(121, 136, 124)" fill-opacity="1.000" /><path d="
              M 400.000,200.000
              L 52.449,481.441
              A 447.214,447.214 0 0 1 12.701,423.607
              Z
            " fill="rgb(140, 150, 138)" fill-opacity="1.000" /><path d="
              M 400.000,200.000
              L 12.701,423.607
              A 447.214,447.214 0 0 1 -17.510,360.267
              Z
            " fill="rgb(159, 164, 151)" fill-opacity="1.000" /><path d="
              M 400.000,200.000
              L -17.510,360.267
              A 447.214,447.214 0 0 1 -37.441,292.981
              Z
            " fill="rgb(178, 178, 165)" fill-opacity="1.000" /><path d="
              M 400.000,200.000
              L -37.441,292.981
              A 447.214,447.214 0 0 1 -46.601,223.405
              Z
            " fill="rgb(197, 191, 179)" fill-opacity="1.000" /><path d="
              M 400.000,200.000
              L -46.601,223.405
              A 447.214,447.214 0 0 1 -44.764,153.253
              Z
            " fill="rgb(215, 205, 193)" fill-opacity="1.000" /><path d="
              M 400.000,200.000
              L -44.764,153.253
              A 447.214,447.214 0 0 1 -31.976,84.252
              Z
            " fill="rgb(234, 219, 206)" fill-opacity="1.000" />
          </g>
        </svg>
        