
          <svg xmlns="http://www.w3.org/2000/svg" width="800" height="400" viewBox="0 0 800 400">
            <!-- https://grabient.com/HQDgrAbANKAs2gIyJoitUHYBMqAMAnDLAWMSAMwxiZV5TbB61SzDaJ5A/ -->
        
          <defs>
            <clipPath id="squareClip">
              <rect x="0" y="0" width="800" height="400" />
            </clipPath>
          </defs>
          <g clip-path="url(#squareClip)">
        <path d="
              M 400.000,200.000
              L 716.228,-116.228
              A 447.214,447.214 0 0 1 749.648,-78.831
              Z
            " fill="rgb(255, 255, 214)" fill-opacity="1.000" /><path d="
              M 400.000,200.000
              L 749.648,-78.831
              A 447.214,447.214 0 0 1 778.670,-37.927
              Z
            " fill="rgb(255, 253, 212)" fill-opacity="1.000" /><path d="
              M 400.000,200.000
              L 778.670,-37.927
              A 447.214,447.214 0 0 1 802.930,5.970
              Z
            " fill="rgb(255, 251, 210)" fill-opacity="1.000" /><path d="
              M 400.000,200.000
              L 802.930,5.970
              A 447.214,447.214 0 0 1 822.122,52.307
              Z
            " fill="rgb(255, 250, 208)" fill-opacity="1.000" /><path d="
              M 400.000,200.000
              L 822.122,52.307
              A 447.214,447.214 0 0 1 836.005,100.502
              Z
            " fill="rgb(255, 248, 206)" fill-opacity="1.000" /><path d="
              M 400.000,200.000
              L 836.005,100.502
              A 447.214,447.214 0 0 1 844.404,149.948
              Z
            " fill="rgb(255, 246, 203)" fill-opacity="1.000" /><path d="
              M 400.000,200.000
              L 844.404,149.948
              A 447.214,447.214 0 0 1 847.214,200.023
              Z
            " fill="rgb(255, 244, 201)" fill-opacity="1.000" /><path d="
              M 400.000,200.000
              L 847.214,200.023
              A 447.214,447.214 0 0 1 844.399,250.099
              Z
            " fill="rgb(255, 243, 199)" fill-opacity="1.000" /><path d="
              M 400.000,200.000
              L 844.399,250.099
              A 447.214,447.214 0 0 1 835.995,299.544
              Z
            " fill="rgb(255, 241, 197)" fill-opacity="1.000" /><path d="
              M 400.000,200.000
              L 835.995,299.544
              A 447.214,447.214 0 0 1 822.107,347.737
              Z
            " fill="rgb(253, 238, 196)" fill-opacity="1.000" /><path d="
              M 400.000,200.000
              L 822.107,347.737
              A 447.214,447.214 0 0 1 802.910,394.072
              Z
            " fill="rgb(251, 236, 194)" fill-opacity="1.000" /><path d="
              M 400.000,200.000
              L 802.910,394.072
              A 447.214,447.214 0 0 1 778.646,437.966
              Z
            " fill="rgb(249, 233, 192)" fill-opacity="1.000" /><path d="
              M 400.000,200.000
              L 778.646,437.966
              A 447.214,447.214 0 0 1 749.619,478.867
              Z
            " fill="rgb(247, 230, 191)" fill-opacity="1.000" /><path d="
              M 400.000,200.000
              L 749.619,478.867
              A 447.214,447.214 0 0 1 716.195,516.261
              Z
            " fill="rgb(245, 228, 189)" fill-opacity="1.000" /><path d="
              M 400.000,200.000
              L 716.195,516.261
              A 447.214,447.214 0 0 1 678.794,549.677
              Z
            " fill="rgb(243, 225, 187)" fill-opacity="1.000" /><path d="
              M 400.000,200.000
              L 678.794,549.677
              A 447.214,447.214 0 0 1 637.887,578.695
              Z
            " fill="rgb(241, 223, 186)" fill-opacity="1.000" /><path d="
              M 400.000,200.000
              L 637.887,578.695
              A 447.214,447.214 0 0 1 593.988,602.951
              Z
            " fill="rgb(240, 220, 184)" fill-opacity="1.000" /><path d="
              M 400.000,200.000
              L 593.988,602.951
              A 447.214,447.214 0 0 1 547.649,622.138
              Z
            " fill="rgb(237, 217, 184)" fill-opacity="1.000" /><path d="
              M 400.000,200.000
              L 547.649,622.138
              A 447.214,447.214 0 0 1 499.453,636.016
              Z
            " fill="rgb(234, 215, 183)" fill-opacity="1.000" /><path d="
              M 400.000,200.000
              L 499.453,636.016
              A 447.214,447.214 0 0 1 450.006,644.409
              Z
            " fill="rgb(232, 212, 182)" fill-opacity="1.000" /><path d="
              M 400.000,200.000
              L 450.006,644.409
              A 447.214,447.214 0 0 1 399.930,647.214
              Z
            " fill="rgb(229, 209, 182)" fill-opacity="1.000" /><path d="
              M 400.000,200.000
              L 399.930,647.214
              A 447.214,447.214 0 0 1 349.855,644.394
              Z
            " fill="rgb(227, 207, 181)" fill-opacity="1.000" /><path d="
              M 400.000,200.000
              L 349.855,644.394
              A 447.214,447.214 0 0 1 300.411,635.984
              Z
            " fill="rgb(224, 204, 180)" fill-opacity="1.000" /><path d="
              M 400.000,200.000
              L 300.411,635.984
              A 447.214,447.214 0 0 1 252.219,622.091
              Z
            " fill="rgb(222, 201, 180)" fill-opacity="1.000" /><path d="
              M 400.000,200.000
              L 252.219,622.091
              A 447.214,447.214 0 0 1 205.886,602.890
              Z
            " fill="rgb(219, 198, 179)" fill-opacity="1.000" /><path d="
              M 400.000,200.000
              L 205.886,602.890
              A 447.214,447.214 0 0 1 161.994,578.621
              Z
            " fill="rgb(216, 196, 180)" fill-opacity="1.000" /><path d="
              M 400.000,200.000
              L 161.994,578.621
              A 447.214,447.214 0 0 1 121.096,549.590
              Z
            " fill="rgb(214, 194, 180)" fill-opacity="1.000" /><path d="
              M 400.000,200.000
              L 121.096,549.590
              A 447.214,447.214 0 0 1 83.706,516.162
              Z
            " fill="rgb(211, 192, 181)" fill-opacity="1.000" /><path d="
              M 400.000,200.000
              L 83.706,516.162
              A 447.214,447.214 0 0 1 50.294,478.758
              Z
            " fill="rgb(209, 190, 181)" fill-opacity="1.000" /><path d="
              M 400.000,200.000
              L 50.294,478.758
              A 447.214,447.214 0 0 1 21.280,437.847
              Z
            " fill="rgb(206, 188, 182)" fill-opacity="1.000" /><path d="
              M 400.000,200.000
              L 21.280,437.847
              A 447.214,447.214 0 0 1 -2.971,393.945
              Z
            " fill="rgb(203, 185, 182)" fill-opacity="1.000" /><path d="
              M 400.000,200.000
              L -2.971,393.945
              A 447.214,447.214 0 0 1 -22.153,347.604
              Z
            " fill="rgb(201, 183, 183)" fill-opacity="1.000" /><path d="
              M 400.000,200.000
              L -22.153,347.604
              A 447.214,447.214 0 0 1 -36.026,299.407
              Z
            " fill="rgb(198, 181, 184)" fill-opacity="1.000" /><path d="
              M 400.000,200.000
              L -36.026,299.407
              A 447.214,447.214 0 0 1 -44.415,249.959
              Z
            " fill="rgb(196, 180, 185)" fill-opacity="1.000" /><path d="
              M 400.000,200.000
              L -44.415,249.959
              A 447.214,447.214 0 0 1 -47.214,199.883
              Z
            " fill="rgb(194, 179, 187)" fill-opacity="1.000" /><path d="
              M 400.000,200.000
              L -47.214,199.883
              A 447.214,447.214 0 0 1 -44.389,149.808
              Z
            " fill="rgb(192, 178, 188)" fill-opacity="1.000" /><path d="
              M 400.000,200.000
              L -44.389,149.808
              A 447.214,447.214 0 0 1 -35.974,100.365
              Z
            " fill="rgb(190, 177, 190)" fill-opacity="1.000" /><path d="
              M 400.000,200.000
              L -35.974,100.365
              A 447.214,447.214 0 0 1 -22.076,52.175
              Z
            " fill="rgb(188, 176, 191)" fill-opacity="1.000" /><path d="
              M 400.000,200.000
              L -22.076,52.175
              A 447.214,447.214 0 0 1 -2.869,5.844
              Z
            " fill="rgb(187, 175, 193)" fill-opacity="1.000" /><path d="
              M 400.000,200.000
              L -2.869,5.844
              A 447.214,447.214 0 0 1 21.404,-38.045
              Z
            " fill="rgb(185, 173, 195)" fill-opacity="1.000" /><path d="
              M 400.000,200.000
              L 21.404,-38.045
              A 447.214,447.214 0 0 1 50.440,-78.941
              Z
            " fill="rgb(183, 172, 196)" fill-opacity="1.000" /><path d="
              M 400.000,200.000
              L 50.440,-78.941
              A 447.214,447.214 0 0 1 83.871,-116.327
              Z
            " fill="rgb(182, 173, 198)" fill-opacity="1.000" /><path d="
              M 400.000,200.000
              L 83.871,-116.327
              A 447.214,447.214 0 0 1 121.279,-149.736
              Z
            " fill="rgb(181, 173, 200)" fill-opacity="1.000" /><path d="
              M 400.000,200.000
              L 121.279,-149.736
              A 447.214,447.214 0 0 1 162.192,-178.745
              Z
            " fill="rgb(180, 173, 202)" fill-opacity="1.000" /><path d="
              M 400.000,200.000
              L 162.192,-178.745
              A 447.214,447.214 0 0 1 206.097,-202.991
              Z
            " fill="rgb(180, 173, 204)" fill-opacity="1.000" /><path d="
              M 400.000,200.000
              L 206.097,-202.991
              A 447.214,447.214 0 0 1 252.440,-222.169
              Z
            " fill="rgb(179, 174, 206)" fill-opacity="1.000" /><path d="
              M 400.000,200.000
              L 252.440,-222.169
              A 447.214,447.214 0 0 1 300.639,-236.036
              Z
            " fill="rgb(178, 174, 208)" fill-opacity="1.000" /><path d="
              M 400.000,200.000
              L 300.639,-236.036
              A 447.214,447.214 0 0 1 350.087,-244.420
              Z
            " fill="rgb(177, 174, 210)" fill-opacity="1.000" /><path d="
              M 400.000,200.000
              L 350.087,-244.420
              A 447.214,447.214 0 0 1 400.164,-247.214
              Z
            " fill="rgb(176, 175, 213)" fill-opacity="1.000" /><path d="
              M 400.000,200.000
              L 400.164,-247.214
              A 447.214,447.214 0 0 1 450.238,-244.383
              Z
            " fill="rgb(186, 185, 213)" fill-opacity="1.000" /><path d="
              M 400.000,200.000
              L 450.238,-244.383
              A 447.214,447.214 0 0 1 499.681,-235.963
              Z
            " fill="rgb(196, 195, 213)" fill-opacity="1.000" /><path d="
              M 400.000,200.000
              L 499.681,-235.963
              A 447.214,447.214 0 0 1 547.870,-222.060
              Z
            " fill="rgb(206, 205, 213)" fill-opacity="1.000" /><path d="
              M 400.000,200.000
              L 547.870,-222.060
              A 447.214,447.214 0 0 1 594.199,-202.849
              Z
            " fill="rgb(216, 215, 213)" fill-opacity="1.000" /><path d="
              M 400.000,200.000
              L 594.199,-202.849
              A 447.214,447.214 0 0 1 638.085,-178.571
              Z
            " fill="rgb(226, 225, 213)" fill-opacity="1.000" /><path d="
              M 400.000,200.000
              L 638.085,-178.571
              A 447.214,447.214 0 0 1 678.977,-149.531
              Z
            " fill="rgb(235, 235, 213)" fill-opacity="1.000" /><path d="
              M 400.000,200.000
              L 678.977,-149.531
              A 447.214,447.214 0 0 1 716.360,-116.096
              Z
            " fill="rgb(245, 245, 214)" fill-opacity="1.000" />
          </g>
        </svg>
        